<?xml version="1.0" encoding="UTF-8" standalone="no"?>
<!-- Created with Inkscape (http://www.inkscape.org/) -->

<svg
   xmlns:dc="http://purl.org/dc/elements/1.1/"
   xmlns:cc="http://creativecommons.org/ns#"
   xmlns:rdf="http://www.w3.org/1999/02/22-rdf-syntax-ns#"
   xmlns:svg="http://www.w3.org/2000/svg"
   xmlns="http://www.w3.org/2000/svg"
   xmlns:sodipodi="http://sodipodi.sourceforge.net/DTD/sodipodi-0.dtd"
   xmlns:inkscape="http://www.inkscape.org/namespaces/inkscape"
   width="148mm"
   height="148mm"
   viewBox="0 0 524.40944 524.40945"
   id="svg2"
   version="1.1"
   inkscape:version="0.91 r13725"
   sodipodi:docname="uusitiedekunta.svg"
   inkscape:export-filename="C:\Users\Sakke\Desktop\Fuksit\Ähis\images\uusitiedekunta.png"
   inkscape:export-xdpi="299"
   inkscape:export-ydpi="299">
  <defs
     id="defs4">
    <marker
       inkscape:stockid="Arrow1Lend"
       orient="auto"
       refY="0.0"
       refX="0.0"
       id="Arrow1Lend"
       style="overflow:visible;"
       inkscape:isstock="true">
      <path
         id="path4329"
         d="M 0.0,0.0 L 5.0,-5.0 L -12.5,0.0 L 5.0,5.0 L 0.0,0.0 z "
         style="fill-rule:evenodd;stroke:#000000;stroke-width:1pt;stroke-opacity:1;fill:#000000;fill-opacity:1"
         transform="scale(0.8) rotate(180) translate(12.5,0)" />
    </marker>
  </defs>
  <sodipodi:namedview
     id="base"
     pagecolor="#ffffff"
     bordercolor="#666666"
     borderopacity="1.0"
     inkscape:pageopacity="0.0"
     inkscape:pageshadow="2"
     inkscape:zoom="1.4"
     inkscape:cx="244.87353"
     inkscape:cy="386.28102"
     inkscape:document-units="px"
     inkscape:current-layer="layer1"
     showgrid="false"
     width="148mm"
     inkscape:window-width="1366"
     inkscape:window-height="705"
     inkscape:window-x="-8"
     inkscape:window-y="-8"
     inkscape:window-maximized="1" />
  <metadata
     id="metadata7">
    <rdf:RDF>
      <cc:Work
         rdf:about="">
        <dc:format>image/svg+xml</dc:format>
        <dc:type
           rdf:resource="http://purl.org/dc/dcmitype/StillImage" />
        <dc:title></dc:title>
      </cc:Work>
    </rdf:RDF>
  </metadata>
  <g
     inkscape:label="Taso 1"
     inkscape:groupmode="layer"
     id="layer1"
     transform="translate(0,-527.95276)">
    <text
       xml:space="preserve"
       style="font-style:normal;font-weight:normal;font-size:40px;line-height:125%;font-family:sans-serif;letter-spacing:0px;word-spacing:0px;fill:#000000;fill-opacity:1;stroke:none;stroke-width:1px;stroke-linecap:butt;stroke-linejoin:miter;stroke-opacity:1"
       x="47.53154"
       y="562.01556"
       id="text3336"
       sodipodi:linespacing="125%"><tspan
         sodipodi:role="line"
         id="tspan3338"
         x="47.53154"
         y="562.01556"
         style="font-weight:bold;font-size:25px">Tiedekunta</tspan></text>
    <text
       xml:space="preserve"
       style="font-style:normal;font-weight:normal;font-size:40px;line-height:125%;font-family:sans-serif;letter-spacing:0px;word-spacing:0px;fill:#000000;fill-opacity:1;stroke:none;stroke-width:1px;stroke-linecap:butt;stroke-linejoin:miter;stroke-opacity:1"
       x="48.032028"
       y="605.2193"
       id="text3340"
       sodipodi:linespacing="125%"><tspan
         sodipodi:role="line"
         id="tspan3342"
         x="48.032028"
         y="605.2193"
         style="font-size:17.5px">Dekaani + varadekaanit</tspan><tspan
         sodipodi:role="line"
         x="48.032028"
         y="627.0943"
         id="tspan3344"
         style="font-size:17.5px">Johtoryhmä</tspan><tspan
         sodipodi:role="line"
         x="48.032028"
         y="648.9693"
         id="tspan3346"
         style="font-size:17.5px">Tiedekuntaneuvosto*</tspan></text>
    <text
       xml:space="preserve"
       style="font-style:normal;font-weight:normal;font-size:40px;line-height:125%;font-family:sans-serif;letter-spacing:0px;word-spacing:0px;fill:#000000;fill-opacity:1;stroke:none;stroke-width:1px;stroke-linecap:butt;stroke-linejoin:miter;stroke-opacity:1"
       x="47.995407"
       y="673.37994"
       id="text3340-0"
       sodipodi:linespacing="125%"><tspan
         sodipodi:role="line"
         x="47.995407"
         y="673.37994"
         id="tspan3346-1"
         style="font-size:12.5px">Valintalautakunta*</tspan><tspan
         sodipodi:role="line"
         x="47.995407"
         y="689.00494"
         style="font-size:12.5px"
         id="tspan3377">Kaksikielisen opetuksen kehittämisryhmä*</tspan><tspan
         sodipodi:role="line"
         x="47.995407"
         y="704.62994"
         style="font-size:12.5px"
         id="tspan3381">Opetuksen kehittämisryhmä*</tspan><tspan
         sodipodi:role="line"
         x="47.995407"
         y="720.25494"
         style="font-size:12.5px"
         id="tspan3385">Matias</tspan><tspan
         sodipodi:role="line"
         x="47.995407"
         y="735.87994"
         style="font-size:12.5px"
         id="tspan3387">Viestintäryhmä</tspan><tspan
         sodipodi:role="line"
         x="47.995407"
         y="751.50494"
         style="font-size:12.5px"
         id="tspan3389">YVV-toimikunta</tspan><tspan
         sodipodi:role="line"
         x="47.995407"
         y="767.12994"
         style="font-size:12.5px"
         id="tspan3391">Dosenttitoimikunta</tspan></text>
    <text
       xml:space="preserve"
       style="font-style:normal;font-weight:normal;font-size:40px;line-height:125%;font-family:sans-serif;letter-spacing:0px;word-spacing:0px;fill:#000000;fill-opacity:1;stroke:none;stroke-width:1px;stroke-linecap:butt;stroke-linejoin:miter;stroke-opacity:1"
       x="26.72444"
       y="824.2926"
       id="text3393"
       sodipodi:linespacing="125%"><tspan
         sodipodi:role="line"
         id="tspan3395"
         x="26.72444"
         y="824.2926"
         style="font-size:20px">Osastot (6)</tspan></text>
    <text
       sodipodi:linespacing="125%"
       id="text3397"
       y="824.23889"
       x="225.29585"
       style="font-style:normal;font-weight:normal;font-size:40px;line-height:125%;font-family:sans-serif;letter-spacing:0px;word-spacing:0px;fill:#000000;fill-opacity:1;stroke:none;stroke-width:1px;stroke-linecap:butt;stroke-linejoin:miter;stroke-opacity:1"
       xml:space="preserve"><tspan
         style="font-size:20px"
         y="824.23889"
         x="225.29585"
         id="tspan3399"
         sodipodi:role="line">Koulutusohjelmat (8+13+7)</tspan></text>
    <text
       xml:space="preserve"
       style="font-style:normal;font-weight:normal;font-size:40px;line-height:125%;font-family:sans-serif;letter-spacing:0px;word-spacing:0px;fill:#000000;fill-opacity:1;stroke:none;stroke-width:1px;stroke-linecap:butt;stroke-linejoin:miter;stroke-opacity:1"
       x="36.724438"
       y="855.66748"
       id="text3401"
       sodipodi:linespacing="125%"><tspan
         sodipodi:role="line"
         id="tspan3403"
         x="36.724438"
         y="855.66748"
         style="font-size:12.5px">Osastonjohtaja</tspan><tspan
         sodipodi:role="line"
         x="36.724438"
         y="871.29248"
         style="font-size:12.5px"
         id="tspan4602">Osaston johtoryhmä</tspan><tspan
         sodipodi:role="line"
         x="36.724438"
         y="886.91748"
         id="tspan3407"
         style="font-size:12.5px" /><tspan
         sodipodi:role="line"
         x="36.724438"
         y="902.54248"
         id="tspan3409"
         style="font-size:12.5px">Jaostot</tspan><tspan
         sodipodi:role="line"
         x="36.724438"
         y="918.16748"
         id="tspan3411"
         style="font-size:12.5px">Tutkimusohjelmat</tspan><tspan
         sodipodi:role="line"
         x="36.724438"
         y="933.79248"
         id="tspan3415"
         style="font-size:12.5px">Instituutit</tspan></text>
    <text
       xml:space="preserve"
       style="font-style:normal;font-weight:normal;font-size:40px;line-height:125%;font-family:sans-serif;letter-spacing:0px;word-spacing:0px;fill:#000000;fill-opacity:1;stroke:none;stroke-width:1px;stroke-linecap:butt;stroke-linejoin:miter;stroke-opacity:1"
       x="374.05811"
       y="855.66748"
       id="text3401-0"
       sodipodi:linespacing="125%"><tspan
         sodipodi:role="line"
         x="374.05811"
         y="855.66748"
         id="tspan3415-1"
         style="font-size:12.5px">KO-johtaja</tspan><tspan
         sodipodi:role="line"
         x="374.05811"
         y="871.29248"
         style="font-size:12.5px"
         id="tspan3472">KO-johtoryhmä*</tspan><tspan
         sodipodi:role="line"
         x="374.05811"
         y="886.91748"
         style="font-size:12.5px"
         id="tspan3476">Opetuksen kehittämis-</tspan><tspan
         sodipodi:role="line"
         x="374.05811"
         y="902.54248"
         style="font-size:12.5px"
         id="tspan5230">ryhmät ym. *</tspan><tspan
         sodipodi:role="line"
         x="374.05811"
         y="918.16748"
         style="font-size:12.5px"
         id="tspan3478" /><tspan
         sodipodi:role="line"
         x="374.05811"
         y="933.79248"
         style="font-size:12.5px"
         id="tspan3480">Opintosuunnat</tspan><tspan
         sodipodi:role="line"
         x="374.05811"
         y="949.41748"
         style="font-size:12.5px"
         id="tspan3482">Tieteenalat</tspan></text>
    <path
       style="fill:#000000"
       d="m 228.623,957.32577 c -0.78148,-0.058 -2.25403,-0.2486 -3.30346,-0.4276 -1.66278,-0.2836 -2.10356,-0.393 -3.61814,-0.8986 -1.55442,-0.5188 -3.58818,-1.3646 -4.87716,-2.0283 -0.89512,-0.4608 -3.23585,-2.321 -4.61358,-3.6663 -1.35964,-1.3276 -1.50046,-1.5138 -2.86791,-3.7911 l -0.39848,-0.6636 -0.41346,0.37426 c -0.64044,0.57972 -1.23687,0.93544 -3.15291,1.88054 -1.9968,0.9848 -2.22441,1.0525 -5.27749,1.5698 -2.34693,0.3976 -3.51322,0.4895 -4.7994,0.3779 -1.20315,-0.1043 -3.75936,-0.5243 -4.33644,-0.7125 -0.41448,-0.1352 -2.06533,-0.8713 -2.95103,-1.3158 -1.32499,-0.66493 -3.12473,-2.05487 -4.33316,-3.34648 -0.99103,-1.05923 -2.42823,-3.16589 -3.08652,-4.52425 -0.78041,-1.61034 -0.82563,-1.744 -1.19385,-3.52828 -0.28618,-1.38677 -0.34084,-1.82345 -0.41287,-3.29841 -0.0943,-1.9304 -0.0433,-3.95281 0.13176,-5.22636 0.14587,-1.06124 0.89634,-4.11972 1.24026,-5.05461 0.13857,-0.37668 0.52022,-1.20085 0.84811,-1.8315 1.44715,-2.78337 2.34088,-3.94423 4.14841,-5.38833 3.84033,-3.06817 6.79916,-4.3751 12.56928,-5.55188 1.64018,-0.33451 2.55373,-0.48878 3.54518,-0.59868 1.34286,-0.14886 5.4291,-0.40747 6.43824,-0.40747 0.53593,0 0.97441,-0.0205 0.97441,-0.0457 0,-0.0251 -0.0861,-0.16108 -0.19134,-0.30215 -0.57887,-0.77593 -1.26041,-2.15049 -1.58532,-3.19737 -0.32596,-1.05023 -0.3389,-1.13356 -0.3753,-2.41717 -0.0543,-1.91478 0.0915,-3.01036 0.61155,-4.59555 0.32712,-0.99714 0.55594,-1.51142 1.14587,-2.57539 1.27741,-2.30388 2.00893,-3.28315 3.34762,-4.48141 2.00478,-1.79447 3.26541,-2.57394 5.24039,-3.24027 0.83443,-0.28153 1.14968,-0.34508 2.09488,-0.42227 1.10486,-0.0902 2.68419,-0.017 3.65775,0.16969 0.4463,0.0856 2.5223,1.06697 3.12318,1.47643 0.23711,0.16157 0.44168,0.29377 0.4546,0.29377 0.0129,0 0.0473,-0.37164 0.0764,-0.82587 0.15578,-2.43188 0.23694,-3.25988 0.41473,-4.23108 0.36198,-1.97733 0.84057,-3.55653 1.82495,-6.02174 0.82463,-2.06515 1.08216,-2.5503 2.1599,-4.0689 1.33803,-1.88537 1.39249,-1.95034 2.56838,-3.06392 1.73011,-1.63846 2.33394,-2.05258 4.75493,-3.26109 2.89131,-1.44329 4.38843,-1.82367 8.39375,-2.13266 1.2895,-0.0995 3.00304,-0.003 4.13041,0.23366 1.29664,0.27166 3.34754,0.88679 3.92319,1.17668 0.79705,0.40139 3.19093,1.85812 3.6203,2.20305 0.96847,0.77799 2.59136,2.21878 3.042,2.70066 1.02591,1.09703 2.64651,3.36634 3.48097,4.87438 1.11715,2.01889 2.39401,5.80134 2.8199,8.35342 0.21564,1.29215 0.48695,3.51992 0.48695,3.99836 0,0.21304 0.0332,0.38734 0.0739,0.38734 0.0406,0 0.24868,-0.0749 0.46232,-0.1665 0.3513,-0.15059 1.43414,-0.48348 3.68689,-1.13344 0.62842,-0.18131 1.13534,-0.25602 2.37688,-0.35027 0.86796,-0.0659 2.06758,-0.16063 2.66583,-0.21054 1.22364,-0.10207 2.69589,-0.0529 3.68411,0.12305 1.01533,0.18079 4.27542,0.97825 4.79718,1.17347 0.86484,0.32358 2.64091,1.2847 3.71466,2.0102 0.90403,0.61082 1.22414,0.8887 2.07337,1.79992 1.27967,1.37305 2.65371,3.07136 3.00194,3.71038 1.15607,2.12145 1.45697,2.74158 1.86346,3.84041 0.89084,2.40812 0.88834,2.39818 1.49406,5.92207 0.0838,0.48746 0.20748,1.49893 0.27486,2.2477 0.0674,0.74877 0.13891,1.3778 0.15895,1.39784 0.02,0.02 0.26837,-0.12908 0.55185,-0.33136 0.28349,-0.20229 0.99541,-0.60143 1.58205,-0.88697 0.91058,-0.44321 1.26919,-0.5671 2.45108,-0.84678 0.97525,-0.23078 1.77737,-0.36295 2.71388,-0.44718 1.23845,-0.11139 1.43698,-0.10905 2.9006,0.0342 0.86414,0.0846 1.69807,0.17674 1.85317,0.20474 3.79951,0.68599 6.1955,1.51013 9.27896,3.19164 1.99739,1.08924 3.02659,1.85817 5.34491,3.99326 1.08317,0.99756 2.62638,2.85316 3.20525,3.8541 1.30951,2.26427 1.31653,2.27866 1.80674,3.70323 0.54083,1.57164 0.56314,1.65848 0.82804,3.22289 l 0.24558,1.4503 -0.0883,1.61144 c -0.0832,1.51682 -0.11462,1.72264 -0.5357,3.5049 -0.62517,2.64609 -1.27584,4.48606 -2.0811,5.88498 -0.87229,1.51537 -1.04803,1.7808 -2.12364,3.20739 -1.16071,1.53946 -2.56008,2.92407 -4.40211,4.35564 -1.09953,0.85453 -1.47232,1.09107 -2.56877,1.62994 -1.32715,0.6522 -3.25142,1.4842 -3.95462,1.7099 -1.00842,0.3237 -3.09164,0.6899 -4.39422,0.7725 -1.88156,0.1194 -3.88003,-0.053 -5.03273,-0.434 -0.44315,-0.1464 -1.00514,-0.2911 -1.24888,-0.3215 -0.47664,-0.059 -1.98862,-0.4254 -2.79892,-0.6776 -0.27382,-0.085 -1.03769,-0.4533 -1.69749,-0.8179 -1.02234,-0.5649 -1.35462,-0.80146 -2.24857,-1.60075 -0.57692,-0.51584 -1.38835,-1.33132 -1.80317,-1.81218 -0.75068,-0.87018 -0.75481,-0.87341 -0.87695,-0.68704 -0.0675,0.10298 -0.34026,0.48543 -0.60615,0.84988 -2.25878,3.09609 -4.22275,5.22559 -6.44578,6.98909 -1.77524,1.4083 -1.76221,1.4001 -3.64527,2.2955 -2.58574,1.2296 -3.81274,1.6536 -6.20735,2.1449 -1.35258,0.2775 -1.44969,0.2862 -3.38404,0.3017 -2.31285,0.019 -3.87404,-0.156 -5.13382,-0.5738 -0.39884,-0.1323 -1.08773,-0.3558 -1.53088,-0.4967 -1.28075,-0.4072 -3.49384,-1.4859 -4.63434,-2.2589 -1.27464,-0.8639 -2.8938,-2.074 -3.81139,-2.8486 -0.56174,-0.4742 -2.41705,-2.7691 -3.32806,-4.11659 -0.35951,-0.53178 -0.88012,-1.39475 -1.1569,-1.9177 -0.27678,-0.52296 -0.51566,-0.93842 -0.53084,-0.92323 -0.0152,0.0152 -0.16002,0.37054 -0.32187,0.78969 -0.38563,0.99868 -0.59455,1.40225 -1.19127,2.30123 -0.27236,0.41032 -0.66872,1.0189 -0.88079,1.3523 -0.22194,0.349 -0.95712,1.2112 -1.7323,2.0317 l -1.34673,1.4255 -1.7323,1.1477 c -2.43724,1.6148 -4.43314,2.6175 -6.84865,3.4405 -2.00747,0.684 -2.05798,0.6957 -4.23004,0.985 -3.37065,0.449 -5.27037,0.5251 -8.01695,0.3213 z m 9.38668,-3.0452 c 0.93061,-0.2125 2.4418,-0.6343 3.3582,-0.9373 1.39854,-0.4625 1.90976,-0.6791 3.1826,-1.3482 0.83404,-0.4384 2.09089,-1.1899 2.79302,-1.67 1.21753,-0.8325 1.32935,-0.9324 2.41717,-2.1601 0.62731,-0.70794 1.4073,-1.6911 1.7333,-2.18478 0.32599,-0.49367 0.71774,-1.06831 0.87056,-1.27696 0.15281,-0.20866 0.38105,-0.66188 0.50721,-1.00716 0.12616,-0.34528 0.48153,-1.26228 0.78971,-2.03779 0.30818,-0.77551 0.66125,-1.6778 0.78459,-2.00509 l 0.22425,-0.59508 1.2578,2.49001 c 1.2227,2.42054 1.9336,3.62561 2.77429,4.70278 0.6891,0.88293 1.79766,2.10767 2.41174,2.66457 1.44052,1.3063 3.60999,2.7629 5.08341,3.4129 2.4474,1.0798 3.38042,1.3695 5.24933,1.63 2.15546,0.3005 3.89359,0.224 6.72533,-0.2961 0.62697,-0.1151 3.29897,-1.1998 4.67597,-1.8981 1.12933,-0.5727 1.62236,-0.9172 3.4854,-2.4359 0.71473,-0.5826 2.63389,-2.70306 3.83284,-4.23482 1.20985,-1.54568 1.53836,-2.01417 1.98507,-2.83088 0.97777,-1.78764 1.60964,-2.77982 2.04418,-3.20982 l 0.46274,-0.45792 0.67544,1.43101 c 0.37149,0.78705 0.79241,1.6742 0.93537,1.97143 0.33947,0.70576 1.62309,2.18324 2.85552,3.28676 0.72032,0.64497 1.17232,0.97211 1.9021,1.37668 0.5265,0.29186 1.06603,0.57177 1.19898,0.62201 0.56264,0.21265 2.12137,0.59795 3.19549,0.78995 1.05224,0.188 1.27326,0.2017 2.47522,0.1532 1.19483,-0.048 1.45043,-0.087 2.69917,-0.404 1.41676,-0.3602 2.81642,-0.81582 3.39082,-1.10375 2.17779,-1.09166 3.30505,-1.85828 4.87748,-3.31702 1.9829,-1.83955 3.1731,-3.30279 4.25761,-5.23432 1.46256,-2.60483 2.2004,-5.34752 2.38896,-8.88013 0.0707,-1.32523 -0.27534,-3.1357 -0.93127,-4.8719 -0.50905,-1.3474 -1.61748,-3.45659 -2.15891,-4.10813 -0.16572,-0.19942 -0.50457,-0.63451 -0.75303,-0.96687 -1.06178,-1.42041 -3.99046,-3.8051 -6.26797,-5.10373 -1.35502,-0.77263 -4.47811,-1.96626 -6.24436,-2.38658 -1.71797,-0.40883 -2.06168,-0.44624 -4.0689,-0.44293 -1.9317,0.003 -2.60508,0.0687 -4.53549,0.44136 -1.22551,0.23657 -2.55165,0.88384 -3.71438,1.81295 -0.97653,0.78032 -1.96171,1.45656 -2.02694,1.39133 -0.0216,-0.0216 -0.10998,-0.94209 -0.19633,-2.04548 -0.0864,-1.10338 -0.19468,-2.41099 -0.24073,-2.9058 -0.0828,-0.88932 -0.6255,-3.39161 -1.01518,-4.68047 -0.48045,-1.58906 -2.08794,-5.11697 -2.68871,-5.90085 -0.15309,-0.19974 -0.51145,-0.67134 -0.79637,-1.04802 -0.28492,-0.37667 -0.64938,-0.82478 -0.8099,-0.99578 -0.88231,-0.93993 -3.3162,-2.81871 -4.1096,-3.1723 -0.86073,-0.3836 -2.67058,-1.06919 -3.25249,-1.23205 -1.04845,-0.29346 -3.83449,-0.64192 -5.13696,-0.64252 -0.33264,-1.6e-4 -1.07592,0.0543 -1.65173,0.12089 -3.06819,0.35509 -5.80381,1.03884 -7.38534,1.84593 -0.38214,0.19502 -0.90615,0.39845 -1.16446,0.45208 -0.25833,0.0536 -0.51276,0.11403 -0.56541,0.13424 -0.12919,0.0496 -0.17698,-0.51264 -0.26496,-3.11742 l -0.0721,-2.13516 -0.44752,-1.77259 c -0.83112,-3.29203 -1.66848,-5.43936 -2.9063,-7.45294 -0.23156,-0.37668 -0.57568,-0.96098 -0.76472,-1.29844 -0.53451,-0.95421 -2.7365,-3.2455 -3.99343,-4.15539 -0.53178,-0.38495 -1.25693,-0.90953 -1.61145,-1.16574 -0.37173,-0.26865 -0.98564,-0.60739 -1.4503,-0.80025 -0.44315,-0.18393 -1.20237,-0.513 -1.68716,-0.73127 -0.48478,-0.21826 -1.02865,-0.41311 -1.20858,-0.433 -3.55487,-0.39284 -3.405,-0.38348 -4.54726,-0.28405 -0.60372,0.0525 -1.50605,0.12926 -2.0052,0.17047 -0.6883,0.0568 -1.14569,0.1514 -1.89345,0.39155 -0.54225,0.17415 -1.27597,0.39418 -1.63049,0.48895 -0.35452,0.0948 -0.95277,0.33938 -1.32944,0.54357 -0.37668,0.20419 -1.06557,0.5738 -1.53088,0.82136 -1.06904,0.56876 -0.99917,0.51668 -2.184,1.62781 -0.54923,0.51507 -1.10754,1.02748 -1.24069,1.13868 -0.13314,0.1112 -0.45679,0.50558 -0.71921,0.87639 -0.26242,0.3708 -0.78119,1.1 -1.15281,1.62044 -0.37162,0.52043 -0.8043,1.22745 -0.96152,1.57116 -0.15721,0.3437 -0.56908,1.24129 -0.91525,1.99464 -0.487,1.05981 -0.67609,1.57939 -0.83571,2.29631 -0.11346,0.50962 -0.33418,1.47045 -0.4905,2.13517 -0.30607,1.30154 -0.35102,1.73483 -0.57458,5.53861 -0.0775,1.31796 -0.16609,2.43715 -0.19694,2.48707 -0.0615,0.0995 -0.46119,-0.15232 -2.01667,-1.27035 -0.60073,-0.43178 -1.33434,-0.86215 -2.0546,-1.20532 -1.03963,-0.49533 -1.18692,-0.5425 -2.04682,-0.65551 -0.73651,-0.0968 -1.14972,-0.10564 -2.01431,-0.0432 -1.05199,0.076 -1.12056,0.0924 -2.08721,0.49961 -2.18517,0.92053 -2.41039,1.0646 -3.86576,2.47286 -2.6889,2.60184 -3.67174,4.40298 -4.32475,7.92545 -0.17205,0.92805 -0.19367,1.21955 -0.14937,2.01431 0.072,1.29273 0.41099,2.43373 1.04284,3.51057 0.41607,0.70908 0.64073,0.96911 1.92631,2.22958 l 1.4553,1.42688 -2.65888,0.005 c -1.46239,0.003 -3.00334,0.04 -3.42433,0.0823 -0.42099,0.0422 -1.45433,0.13216 -2.29631,0.19982 -2.30895,0.18555 -2.85678,0.259 -5.44835,0.73046 -2.50427,0.45559 -2.53964,0.46512 -5.32238,1.43443 -2.05999,0.71756 -2.85686,1.1007 -4.37748,2.10469 -0.99365,0.65607 -1.27791,0.89917 -2.37688,2.0327 -1.72202,1.77619 -2.34115,2.67234 -3.30717,4.78688 -0.40754,0.89209 -0.7913,2.30549 -1.29908,4.78459 -0.20852,1.01806 -0.28489,3.77617 -0.15585,5.62863 0.10296,1.47816 0.38089,2.65869 1.11238,4.72491 0.39197,1.10721 0.52126,1.3667 1.13979,2.28756 0.91202,1.3578 1.824,2.44078 2.67169,3.17263 0.74229,0.64085 2.50359,1.84525 3.23485,2.21203 0.65918,0.33063 2.52849,0.92217 3.69437,1.16911 0.91995,0.1948 1.17109,0.2137 2.9006,0.2182 1.87979,0 1.90146,0 3.00392,-0.2645 1.0002,-0.2427 1.27286,-0.3515 2.74603,-1.09579 0.89956,-0.45449 1.77135,-0.91861 1.93731,-1.03138 0.5411,-0.36769 1.87743,-1.73841 2.55571,-2.62149 0.86789,-1.12995 1.69333,-2.05492 1.7624,-1.97492 0.0303,0.035 0.4094,0.95203 0.84255,2.03774 0.6443,1.615 0.92446,2.2024 1.54042,3.22971 0.7021,1.17098 0.83326,1.33686 1.94451,2.45923 1.02484,1.035 1.38486,1.3357 2.57222,2.1482 1.91839,1.3128 3.81305,2.2277 5.67104,2.7383 1.15661,0.3179 4.41795,1.1109 4.99393,1.2143 0.11078,0.02 1.86927,0.03 3.90775,0.023 l 3.70633,-0.013 1.69202,-0.3863 z"
       id="path3506"
       inkscape:connector-curvature="0" />
    <text
       xml:space="preserve"
       style="font-style:normal;font-weight:normal;font-size:40px;line-height:125%;font-family:sans-serif;letter-spacing:0px;word-spacing:0px;fill:#000000;fill-opacity:1;stroke:none;stroke-width:1px;stroke-linecap:butt;stroke-linejoin:miter;stroke-opacity:1"
       x="226.27417"
       y="925.08295"
       id="text3508"
       sodipodi:linespacing="125%"><tspan
         sodipodi:role="line"
         id="tspan3510"
         x="226.27417"
         y="925.08295"
         style="font-size:25px">YPA</tspan></text>
    <text
       xml:space="preserve"
       style="font-style:normal;font-weight:normal;font-size:40px;line-height:125%;font-family:sans-serif;letter-spacing:0px;word-spacing:0px;fill:#000000;fill-opacity:1;stroke:none;stroke-width:1px;stroke-linecap:butt;stroke-linejoin:miter;stroke-opacity:1"
       x="428.67233"
       y="719.2359"
       id="text3512"
       sodipodi:linespacing="125%"><tspan
         sodipodi:role="line"
         id="tspan3514"
         x="428.67233"
         y="719.2359"
         style="font-size:12.5px">Luonnon-</tspan><tspan
         sodipodi:role="line"
         x="428.67233"
         y="734.8609"
         id="tspan3516"
         style="font-size:12.5px">tieteellinen</tspan><tspan
         sodipodi:role="line"
         x="428.67233"
         y="750.4859"
         id="tspan3518"
         style="font-size:12.5px">tutkijakoulu</tspan></text>
    <path
       style="fill:none;fill-rule:evenodd;stroke:#000000;stroke-width:1px;stroke-linecap:butt;stroke-linejoin:miter;stroke-opacity:1;marker-end:url(#Arrow1Lend)"
       d="m 472.57808,760.30554 16.92748,39.10009"
       id="path3520"
       inkscape:connector-curvature="0"
       sodipodi:nodetypes="cc" />
    <g
       id="layer1-2"
       inkscape:label="Layer 1"
       transform="matrix(0.08581861,0,0,0.08581861,32.823069,949.22194)">
      <g
         id="g8105">
        <g
           id="g8081">
          <rect
             y="906.08911"
             x="42.744244"
             height="20.451895"
             width="589.01453"
             id="rect7970"
             style="color:#000000;clip-rule:nonzero;display:inline;overflow:visible;visibility:visible;opacity:1;isolation:auto;mix-blend-mode:normal;color-interpolation:sRGB;color-interpolation-filters:linearRGB;solid-color:#000000;solid-opacity:1;fill:#000000;fill-opacity:1;fill-rule:nonzero;stroke:#000000;stroke-width:14.3163271;stroke-linecap:round;stroke-linejoin:miter;stroke-miterlimit:4;stroke-dasharray:none;stroke-dashoffset:0;stroke-opacity:1;color-rendering:auto;image-rendering:auto;shape-rendering:auto;text-rendering:auto;enable-background:accumulate" />
          <rect
             y="857.00458"
             x="132.73259"
             height="36.813408"
             width="102.25948"
             id="rect7972"
             style="color:#000000;clip-rule:nonzero;display:inline;overflow:visible;visibility:visible;opacity:1;isolation:auto;mix-blend-mode:normal;color-interpolation:sRGB;color-interpolation-filters:linearRGB;solid-color:#000000;solid-opacity:1;fill:#000000;fill-opacity:1;fill-rule:nonzero;stroke:#000000;stroke-width:14.3163271;stroke-linecap:round;stroke-linejoin:miter;stroke-miterlimit:4;stroke-dasharray:none;stroke-dashoffset:0;stroke-opacity:1;color-rendering:auto;image-rendering:auto;shape-rendering:auto;text-rendering:auto;enable-background:accumulate" />
          <rect
             transform="matrix(0.91734968,0.39808236,-0.39808236,0.91734968,0,0)"
             y="681.96747"
             x="416.98499"
             height="16.361517"
             width="188.15742"
             id="rect7974"
             style="color:#000000;clip-rule:nonzero;display:inline;overflow:visible;visibility:visible;opacity:1;isolation:auto;mix-blend-mode:normal;color-interpolation:sRGB;color-interpolation-filters:linearRGB;solid-color:#000000;solid-opacity:1;fill:#000000;fill-opacity:1;fill-rule:nonzero;stroke:#000000;stroke-width:14.3163271;stroke-linecap:round;stroke-linejoin:miter;stroke-miterlimit:4;stroke-dasharray:none;stroke-dashoffset:0;stroke-opacity:1;color-rendering:auto;image-rendering:auto;shape-rendering:auto;text-rendering:auto;enable-background:accumulate" />
          <path
             inkscape:connector-curvature="0"
             id="path7976"
             d="m 453.48382,665.5037 -0.71024,3.34421 -373.217133,0 0,36.81141 365.362733,0 -42.31705,197.2074 93.0785,-0.63473 93.07569,0.63473 -46.74337,-217.84025 -4.13831,-19.52277 -84.39082,0 z m 43.00769,19.53955 a 32.604005,30.84419 0 0 1 32.60319,30.84442 32.604005,30.84419 0 0 1 -32.60319,30.84441 32.604005,30.84419 0 0 1 -32.6032,-30.84441 32.604005,30.84419 0 0 1 32.6032,-30.84442 z"
             style="color:#000000;clip-rule:nonzero;display:inline;overflow:visible;visibility:visible;opacity:1;isolation:auto;mix-blend-mode:normal;color-interpolation:sRGB;color-interpolation-filters:linearRGB;solid-color:#000000;solid-opacity:1;fill:#000000;fill-opacity:1;fill-rule:nonzero;stroke:#000000;stroke-width:18.75280952;stroke-linecap:round;stroke-linejoin:miter;stroke-miterlimit:4;stroke-dasharray:none;stroke-dashoffset:0;stroke-opacity:1;color-rendering:auto;image-rendering:auto;shape-rendering:auto;text-rendering:auto;enable-background:accumulate" />
          <path
             inkscape:connector-curvature="0"
             id="path8065"
             d="m 470.18806,241.72365 a 189.47138,209.92324 0 0 0 -102.51554,33.3945 139.66922,196.99812 0 0 1 18.66435,-1.99924 139.66922,196.99812 0 0 1 139.66808,197.00049 139.66922,196.99812 0 0 1 -95.58385,186.66589 189.47138,209.92324 0 0 0 39.76696,4.78702 189.47138,209.92324 0 0 0 178.45916,-140.07073 73.996438,72.099092 0 0 1 -8.85543,0.60957 73.996438,72.099092 0 0 1 -73.99751,-72.09892 73.996438,72.099092 0 0 1 73.99751,-72.09892 73.996438,72.099092 0 0 1 7.68664,0.40544 189.47138,209.92324 0 0 0 -177.29037,-136.5951 z"
             style="color:#000000;clip-rule:nonzero;display:inline;overflow:visible;visibility:visible;opacity:1;isolation:auto;mix-blend-mode:normal;color-interpolation:sRGB;color-interpolation-filters:linearRGB;solid-color:#000000;solid-opacity:1;fill:#000000;fill-opacity:1;fill-rule:nonzero;stroke:#000000;stroke-width:15.77882671;stroke-linecap:round;stroke-linejoin:miter;stroke-miterlimit:4;stroke-dasharray:none;stroke-dashoffset:0;stroke-opacity:1;color-rendering:auto;image-rendering:auto;shape-rendering:auto;text-rendering:auto;enable-background:accumulate" />
          <g
             transform="matrix(1.0745473,-0.94600223,0.94600223,1.0745473,-321.15263,209.59092)"
             id="g8053">
            <g
               id="g8037">
              <rect
                 y="382.36218"
                 x="82.85714"
                 height="31.428572"
                 width="51.42857"
                 id="rect8031"
                 style="color:#000000;clip-rule:nonzero;display:inline;overflow:visible;visibility:visible;opacity:1;isolation:auto;mix-blend-mode:normal;color-interpolation:sRGB;color-interpolation-filters:linearRGB;solid-color:#000000;solid-opacity:1;fill:#000000;fill-opacity:1;fill-rule:nonzero;stroke:#000000;stroke-width:10;stroke-linecap:round;stroke-linejoin:miter;stroke-miterlimit:4;stroke-dasharray:none;stroke-dashoffset:0;stroke-opacity:1;color-rendering:auto;image-rendering:auto;shape-rendering:auto;text-rendering:auto;enable-background:accumulate" />
              <rect
                 transform="matrix(0.57433347,0.81862144,-0.81862144,0.57433347,0,0)"
                 style="color:#000000;clip-rule:nonzero;display:inline;overflow:visible;visibility:visible;opacity:1;isolation:auto;mix-blend-mode:normal;color-interpolation:sRGB;color-interpolation-filters:linearRGB;solid-color:#000000;solid-opacity:1;fill:#000000;fill-opacity:1;fill-rule:nonzero;stroke:#000000;stroke-width:10;stroke-linecap:round;stroke-linejoin:miter;stroke-miterlimit:4;stroke-dasharray:none;stroke-dashoffset:0;stroke-opacity:1;color-rendering:auto;image-rendering:auto;shape-rendering:auto;text-rendering:auto;enable-background:accumulate"
                 id="rect8033"
                 width="51.42857"
                 height="31.428572"
                 x="351.19626"
                 y="93.407524" />
              <g
                 id="g7997">
                <rect
                   style="color:#000000;clip-rule:nonzero;display:inline;overflow:visible;visibility:visible;opacity:1;isolation:auto;mix-blend-mode:normal;color-interpolation:sRGB;color-interpolation-filters:linearRGB;solid-color:#000000;solid-opacity:1;fill:#000000;fill-opacity:1;fill-rule:nonzero;stroke:#000000;stroke-width:10;stroke-linecap:round;stroke-linejoin:miter;stroke-miterlimit:4;stroke-dasharray:none;stroke-dashoffset:0;stroke-opacity:1;color-rendering:auto;image-rendering:auto;shape-rendering:auto;text-rendering:auto;enable-background:accumulate"
                   id="rect7989"
                   width="317.14285"
                   height="114.28571"
                   x="174.28572"
                   y="340.93362" />
                <rect
                   y="336.89435"
                   x="149.67502"
                   height="122.36427"
                   width="10.935698"
                   id="rect7995"
                   style="color:#000000;clip-rule:nonzero;display:inline;overflow:visible;visibility:visible;opacity:1;isolation:auto;mix-blend-mode:normal;color-interpolation:sRGB;color-interpolation-filters:linearRGB;solid-color:#000000;solid-opacity:1;fill:#000000;fill-opacity:1;fill-rule:nonzero;stroke:#000000;stroke-width:1.92144132;stroke-linecap:round;stroke-linejoin:miter;stroke-miterlimit:4;stroke-dasharray:none;stroke-dashoffset:0;stroke-opacity:1;color-rendering:auto;image-rendering:auto;shape-rendering:auto;text-rendering:auto;enable-background:accumulate" />
              </g>
              <rect
                 y="318.58868"
                 x="234.25252"
                 height="34.611866"
                 width="58.007351"
                 id="rect8035"
                 style="color:#000000;clip-rule:nonzero;display:inline;overflow:visible;visibility:visible;opacity:1;isolation:auto;mix-blend-mode:normal;color-interpolation:sRGB;color-interpolation-filters:linearRGB;solid-color:#000000;solid-opacity:1;fill:#000000;fill-opacity:1;fill-rule:nonzero;stroke:#000000;stroke-width:11.14524174;stroke-linecap:round;stroke-linejoin:miter;stroke-miterlimit:4;stroke-dasharray:none;stroke-dashoffset:0;stroke-opacity:1;color-rendering:auto;image-rendering:auto;shape-rendering:auto;text-rendering:auto;enable-background:accumulate"
                 transform="matrix(-0.5473042,0.83693376,0.79896175,0.60138184,0,0)" />
            </g>
            <g
               id="g8049"
               transform="translate(-5.7142857,0)">
              <rect
                 y="373.79077"
                 x="514.28571"
                 height="40"
                 width="20"
                 id="rect8045"
                 style="color:#000000;clip-rule:nonzero;display:inline;overflow:visible;visibility:visible;opacity:1;isolation:auto;mix-blend-mode:normal;color-interpolation:sRGB;color-interpolation-filters:linearRGB;solid-color:#000000;solid-opacity:1;fill:#000000;fill-opacity:1;fill-rule:nonzero;stroke:#000000;stroke-width:10;stroke-linecap:round;stroke-linejoin:miter;stroke-miterlimit:4;stroke-dasharray:none;stroke-dashoffset:0;stroke-opacity:1;color-rendering:auto;image-rendering:auto;shape-rendering:auto;text-rendering:auto;enable-background:accumulate" />
              <rect
                 y="338.07648"
                 x="537.14288"
                 height="111.42857"
                 width="11.428572"
                 id="rect8047"
                 style="color:#000000;clip-rule:nonzero;display:inline;overflow:visible;visibility:visible;opacity:1;isolation:auto;mix-blend-mode:normal;color-interpolation:sRGB;color-interpolation-filters:linearRGB;solid-color:#000000;solid-opacity:1;fill:#000000;fill-opacity:1;fill-rule:nonzero;stroke:#000000;stroke-width:10;stroke-linecap:round;stroke-linejoin:miter;stroke-miterlimit:4;stroke-dasharray:none;stroke-dashoffset:0;stroke-opacity:1;color-rendering:auto;image-rendering:auto;shape-rendering:auto;text-rendering:auto;enable-background:accumulate" />
            </g>
          </g>
          <ellipse
             style="color:#000000;clip-rule:nonzero;display:inline;overflow:visible;visibility:visible;opacity:1;isolation:auto;mix-blend-mode:normal;color-interpolation:sRGB;color-interpolation-filters:linearRGB;solid-color:#000000;solid-opacity:1;fill:#000000;fill-opacity:1;fill-rule:nonzero;stroke:#000000;stroke-width:8.84548092;stroke-linecap:round;stroke-linejoin:miter;stroke-miterlimit:4;stroke-dasharray:none;stroke-dashoffset:0;stroke-opacity:1;color-rendering:auto;image-rendering:auto;shape-rendering:auto;text-rendering:auto;enable-background:accumulate"
             id="ellipse8076"
             cx="641.49176"
             cy="452.34579"
             rx="49.281967"
             ry="48.018326" />
          <ellipse
             ry="29.731926"
             rx="30.514345"
             cy="452.34579"
             cx="641.49176"
             id="ellipse8079"
             style="color:#000000;clip-rule:nonzero;display:inline;overflow:visible;visibility:visible;opacity:1;isolation:auto;mix-blend-mode:normal;color-interpolation:sRGB;color-interpolation-filters:linearRGB;solid-color:#000000;solid-opacity:1;fill:#ffffff;fill-opacity:1;fill-rule:nonzero;stroke:#000000;stroke-width:5.476933;stroke-linecap:round;stroke-linejoin:miter;stroke-miterlimit:4;stroke-dasharray:none;stroke-dashoffset:0;stroke-opacity:1;color-rendering:auto;image-rendering:auto;shape-rendering:auto;text-rendering:auto;enable-background:accumulate" />
        </g>
        <rect
           style="color:#000000;clip-rule:nonzero;display:inline;overflow:visible;visibility:visible;opacity:1;isolation:auto;mix-blend-mode:normal;color-interpolation:sRGB;color-interpolation-filters:linearRGB;solid-color:#000000;solid-opacity:1;fill:#000000;fill-opacity:1;fill-rule:nonzero;stroke:#000000;stroke-width:10;stroke-linecap:round;stroke-linejoin:miter;stroke-miterlimit:4;stroke-dasharray:none;stroke-dashoffset:0;stroke-opacity:1;color-rendering:auto;image-rendering:auto;shape-rendering:auto;text-rendering:auto;enable-background:accumulate"
           id="rect8101"
           width="38.432941"
           height="14.946144"
           x="186.29301"
           y="489.74664"
           ry="7.4730721" />
      </g>
    </g>
    <path
       style="fill:#000000"
       d="m 389.49955,1028.3878 0,-0.9629 15.02114,0 15.02115,0 0,-11.6189 0,-11.6188 -15.02115,0 -15.02114,0 0,-0.8988 0,-0.8988 15.91985,0 15.91984,0 0,13.4805 0,13.4806 -15.91984,0 -15.91985,0 0,-0.9629 z m 0,-12.5818 0,-11.3622 14.76438,0 14.76437,0 0,11.3622 0,11.3621 -14.76437,0 -14.76438,0 0,-11.3621 z m 0,-15.4705 0,-1.5407 17.84564,0 17.84563,0 0,1.5407 0,1.5407 -17.84563,0 -17.84564,0 0,-1.5407 z m 1.46008,-3.1831 c 0.0345,-0.056 1.04971,-3.699 2.25571,-8.0954 1.20601,-4.3964 2.33063,-8.26553 2.49917,-8.59811 1.07736,-2.1261 3.23994,-3.96438 5.55729,-4.72393 l 1.13053,-0.37051 5.90576,0 c 5.26959,0 5.99564,0.0251 6.74025,0.229 2.61549,0.71776 4.74773,2.40079 5.95116,4.69743 0.24522,0.46802 0.67552,1.61955 0.95621,2.55902 0.48108,1.6103 0.60976,1.939 0.70923,1.8118 0.023,-0.03 0.77407,-0.9316 1.66902,-2.005 l 1.62718,-1.9515 0,-10.08462 0,-10.08472 0.8987,0 0.89871,0 0,9.23271 0,9.2327 0.35306,-0.0943 0.35305,-0.0943 0.033,-9.13833 0.033,-9.13831 21.56798,0 21.56798,0 0,9.37221 0,9.3722 -20.31269,0 -20.31268,0 0.64898,-0.6741 c 0.35693,-0.37064 3.5562,-3.73599 7.10947,-7.47843 3.55325,-3.74244 6.78188,-7.13691 7.17469,-7.54322 l 0.71422,-0.73878 -0.3175,-0.3167 -0.31749,-0.31659 -8.26119,8.67281 -8.26122,8.67293 0.29223,0.31109 0.29225,0.3111 0.3076,-0.28902 0.30762,-0.28889 0.34336,0.41777 0.34336,0.41778 20.12449,-10e-4 20.1245,-10e-4 0,0.70608 0,0.70619 -20.0603,0 -20.06031,0 -0.32095,0.64424 c -0.17653,0.3544 -2.04489,2.7229 -4.15191,5.2633 -4.09782,4.9407 -4.41686,5.2464 -5.5869,5.3527 -0.45665,0.042 -0.73152,-0.018 -1.17399,-0.2545 -0.94938,-0.5075 -1.32605,-1.1421 -2.06061,-3.4716 -0.36101,-1.1448 -0.86235,-2.7316 -1.1141,-3.526 l -0.45771,-1.4442 -0.75396,0 c -0.72896,0 -0.75143,0.012 -0.67763,0.3041 0.042,0.1672 0.87065,3.0559 1.84148,6.4192 l 1.76516,6.1153 -10.24832,0 c -5.63657,0 -10.2483,-0.045 -10.2483,-0.1004 0,-0.055 0.75106,-2.89 1.66902,-6.2999 0.91796,-3.4099 1.66901,-6.2536 1.66901,-6.3193 0,-0.1865 -1.37479,-0.1475 -1.44239,0.041 -0.0316,0.088 -0.83118,2.9769 -1.77667,6.4192 l -1.71908,6.2589 -2.93072,0 c -1.61189,0 -2.90236,-0.045 -2.86772,-0.1016 z m 67.44011,-21.12436 c 0.60002,-0.65476 0.60402,-1.36335 0.0113,-1.93231 l -0.41725,-0.40036 0.28888,-0.28425 c 0.4287,-0.42194 0.39125,-1.10952 -0.0864,-1.5872 -0.32196,-0.32196 -0.47247,-0.37482 -1.05919,-0.37244 -0.72267,0 -1.10933,0.20752 -1.375,0.72697 -0.20368,0.3982 -0.1799,0.51455 0.12122,0.5933 0.17549,0.0465 0.29017,0 0.34048,-0.14546 0.22914,-0.64867 0.99394,-0.8834 1.47106,-0.45167 0.52142,0.47196 0.11634,1.32816 -0.6283,1.32816 -0.22049,0 -0.2924,0.0739 -0.2924,0.29879 0,0.25752 0.052,0.29105 0.37754,0.24333 0.2842,-0.0418 0.46256,0.0298 0.7214,0.28842 0.28899,0.28901 0.3318,0.41908 0.26829,0.81585 -0.17348,1.08389 -1.46746,1.27732 -1.88009,0.28103 -0.13109,-0.31647 -0.21608,-0.37696 -0.43487,-0.30991 -0.38181,0.11694 -0.38045,0.11221 -0.1538,0.58961 0.30784,0.64869 0.77568,0.89189 1.60414,0.83401 0.60607,-0.0418 0.75006,-0.1086 1.12338,-0.51587 z m -10.94822,-6.16043 c 0.53743,-1.36383 0.97715,-2.52311 0.97715,-2.57622 0,-0.0525 -0.1494,-0.0775 -0.33201,-0.0561 -0.30435,0.037 -0.39958,0.2223 -1.14344,2.22312 -0.44714,1.20272 -0.84398,2.09615 -0.88391,1.99007 -0.0399,-0.10623 -0.38958,-1.08102 -0.77715,-2.16669 -0.38758,-1.08578 -0.73062,-2.00008 -0.76233,-2.03183 -0.0317,-0.0322 -0.19941,-0.0394 -0.37271,-0.0155 l -0.31505,0.0418 0.97704,2.53565 c 0.92813,2.40868 0.99402,2.53565 1.31615,2.53565 0.32115,0 0.39094,-0.13151 1.31626,-2.4798 z m 15.35637,0.23294 c 0,-1.71239 0.003,-1.73316 0.28886,-1.73125 0.55597,0 0.59985,0.12769 0.63777,1.80046 0.0351,1.54879 0.0455,1.60117 0.32514,1.64091 0.28642,0.0405 0.28886,0.0274 0.28886,-1.57277 l 0,-1.61371 0.58845,0 c 0.86917,0 0.6626,-0.30107 -0.27776,-0.40489 -0.41803,-0.0465 -1.03779,-0.14033 -1.37727,-0.20942 -0.86178,-0.17542 -1.72428,0.0454 -2.14175,0.54856 -0.13424,0.16169 -0.13696,0.2377 -0.0129,0.36002 0.12304,0.12136 0.19031,0.11097 0.3091,-0.0489 0.0835,-0.11221 0.28183,-0.27291 0.44071,-0.35751 l 0.28887,-0.15394 0,1.73769 0,1.73781 0.32097,0 0.32096,0 0,-1.73327 z m 3.97997,0.3852 c 0,-1.18031 0.0322,-1.3803 0.25872,-1.60679 0.17837,-0.1784 0.35405,-0.23472 0.56564,-0.18162 0.24052,0.0608 0.32636,0.0155 0.39694,-0.20668 0.16745,-0.52768 -0.45814,-0.67756 -1.01141,-0.24236 -0.28042,0.22064 -0.33827,0.23162 -0.33827,0.0645 0,-0.11694 -0.10883,-0.2019 -0.25678,-0.2019 -0.24496,0 -0.25678,0.0859 -0.25678,1.86167 l 0,1.86155 0.32097,0 0.32097,0 0,-1.34807 z m -14.5076,0.12839 0,-0.32099 -1.66902,0 c -1.575,0 -1.66902,0.0143 -1.66902,0.25297 0,0.23628 0.10735,0.25561 1.63692,0.29309 0.9003,0.0227 1.65137,0.0525 1.66901,0.068 0.0176,0.0155 0.0321,-0.11695 0.0321,-0.29309 z m 8.47346,-0.77027 0,-0.321 -3.91576,0 -3.91578,0 0,0.321 0,0.32088 3.91578,0 3.91576,0 0,-0.32088 z m -8.47346,-0.8346 c 0,-0.24355 -0.0856,-0.25668 -1.66902,-0.25668 -1.58343,0 -1.66902,0.0131 -1.66902,0.25668 0,0.24367 0.0856,0.2568 1.66902,0.2568 1.58341,0 1.66902,-0.0131 1.66902,-0.2568 z m 5.64897,-1.79735 c 0,-0.63091 0.007,-0.64188 0.39409,-0.64188 0.33452,0 0.38788,-0.043 0.35306,-0.28699 -0.0298,-0.20871 -0.12838,-0.28735 -0.36199,-0.28878 l -0.32098,0 -0.0359,-1.63698 c -0.0334,-1.52193 -0.0535,-1.63685 -0.28495,-1.63685 -0.31139,0 -2.56781,3.12849 -2.56781,3.56022 0,0.27995 0.0424,0.29129 1.09128,0.29129 l 1.09128,0 0,0.55632 c 0,0.61741 0.0616,0.72755 0.40655,0.72755 0.19686,0 0.23539,-0.10499 0.23539,-0.64188 z m -2.10607,-1.31598 c 0.13232,-0.23174 1.22642,-1.80714 1.35527,-1.9514 0.0606,-0.0681 0.10883,0.3735 0.10883,0.99497 l 0,1.11693 -0.7779,0 c -0.58559,0 -0.75523,-0.0394 -0.68625,-0.1605 z m 14.16502,1.36287 c 0.31871,-0.40512 0.33531,-0.65631 0.0632,-0.9569 -0.15676,-0.17328 -0.17133,-0.28294 -0.0642,-0.48306 0.0763,-0.14248 0.13861,-0.32064 0.13861,-0.39594 0,-0.2525 -0.5104,-0.65034 -0.8345,-0.65034 -0.31903,0 -0.83451,0.39654 -0.83451,0.64199 0,0.208 0.2375,0.14762 0.51649,-0.13138 0.20627,-0.20632 0.31194,-0.23174 0.51354,-0.12386 0.36467,0.19522 0.32507,0.61753 -0.0672,0.71598 -0.17653,0.0441 -0.32097,0.15918 -0.32097,0.25524 0,0.0966 0.0793,0.14427 0.17603,0.10736 0.22002,-0.0848 0.59428,0.27625 0.59428,0.57266 0,0.52255 -0.65282,0.71467 -0.92848,0.27328 -0.17469,-0.27972 -0.48375,-0.34774 -0.48375,-0.10623 0,0.30429 0.43029,0.61992 0.84508,0.61992 0.30096,0 0.49561,-0.0955 0.68622,-0.33831 z m -63.24025,6.31854 c -3.22477,-0.78221 -5.41638,-4.02978 -4.94324,-7.32484 0.53405,-3.71942 4.12018,-6.30781 7.7105,-5.56546 1.49267,0.30871 2.3765,0.78031 3.42663,1.82862 4.21061,4.20306 1.24393,11.29533 -4.69793,11.23113 -0.45898,0 -1.13217,-0.0812 -1.49596,-0.16945 z"
       id="path4729"
       inkscape:connector-curvature="0" />
    <path
       style="fill:#000000"
       d="m 387.14288,649.73548 0,-3.21942 2.68285,0 2.68284,0 0,-3.29607 0,-3.29607 2.83615,0 2.83616,0 0,-3.21941 0,-3.21941 46.60487,0 46.60487,0 0,3.21941 0,3.21941 2.83616,0 2.83615,0 0,3.29607 0,3.29607 2.68284,0 2.68285,0 0,3.21942 0,3.21941 -57.64287,0 -57.64287,0 0,-3.21941 z m 18.66137,-18.20503 c -0.0485,-0.093 1.19846,-50.30635 1.25254,-50.4375 0.009,-0.0211 2.11992,-0.0383 4.69162,-0.0383 l 4.67582,0 6.1e-4,0.49825 c 3.1e-4,0.27403 0.31045,11.26028 0.6892,24.41389 0.37876,13.15361 0.68896,24.31233 0.68933,24.79716 l 6.1e-4,0.88151 -5.96987,0 c -3.28342,0 -5.99686,-0.0517 -6.02986,-0.11498 z m 21.96583,-0.61322 c 6.2e-4,-0.40051 0.27608,-11.59373 0.61198,-24.87381 0.3359,-13.28009 0.61129,-24.33533 0.61198,-24.56721 l 0.001,-0.42159 4.66274,0 4.66274,0 0.0857,1.11147 c 0.0471,0.6113 0.3623,11.32161 0.70036,23.80067 0.33806,12.47907 0.65347,23.36184 0.70092,24.18394 l 0.0863,1.49473 -6.06259,0 -6.06258,0 0.001,-0.7282 z m 22.03202,-2.06963 c 0.0436,-1.5388 0.32977,-12.90448 0.63591,-25.25707 l 0.55661,-22.45925 4.71415,-0.0405 4.71414,-0.0405 7.7e-4,0.80707 c 4.6e-4,0.44389 0.31074,11.60361 0.68957,24.79938 0.37882,13.19577 0.68891,24.21651 0.68908,24.49055 l 3.3e-4,0.49824 -6.03993,0 -6.03993,0 0.0793,-2.79783 z m 21.96666,1.76302 c 6.2e-4,-0.56915 0.27608,-11.90034 0.61198,-25.18043 0.3359,-13.28008 0.61129,-24.19735 0.61198,-24.26059 6.1e-4,-0.0632 2.10536,-0.11498 4.67706,-0.11498 2.5717,0 4.67981,0.0517 4.68469,0.11498 0.0707,0.91628 1.45526,50.27866 1.41254,50.36085 -0.0329,0.0632 -2.7462,0.11498 -6.02962,0.11498 l -5.96987,0 0.001,-1.03481 z m -68.5288,-54.61508 0,-3.21941 41.54579,0 41.54579,0 0,3.21941 0,3.21942 -41.54579,0 -41.54579,0 0,-3.21942 z m -9.93098,-7.08398 0.0428,-2.02491 4.75247,-2.2494 c 2.61386,-1.23718 14.18597,-6.70529 25.7158,-12.15136 l 20.96334,-9.90196 18.12957,8.56376 c 9.97126,4.71007 21.54445,10.17725 25.71819,12.14929 l 7.58863,3.58554 0.0428,2.02697 0.0428,2.02697 -51.51955,0 -51.51955,0 0.0428,-2.0249 z"
       id="path5228"
       inkscape:connector-curvature="0" />
  </g>
</svg>
